<?xml version="1.0" encoding="UTF-8"?>
<svg width="424px" height="159px" viewBox="0 0 424 159" version="1.1" xmlns="http://www.w3.org/2000/svg" xmlns:xlink="http://www.w3.org/1999/xlink">
    <title>Artboard Copy 2</title>
    <defs>
        <radialGradient cx="50%" cy="-17.0067531%" fx="50%" fy="-17.0067531%" r="100%" gradientTransform="translate(0.500000,-0.170068),scale(0.835294,1.000000),rotate(90.000000),scale(1.000000,1.345219),translate(-0.500000,0.170068)" id="radialGradient-1">
            <stop stop-color="#009E40" offset="0%"></stop>
            <stop stop-color="#7ECC85" offset="100%"></stop>
        </radialGradient>
    </defs>
    <g id="Artboard-Copy-2" stroke="none" stroke-width="1" fill="none" fill-rule="evenodd">
        <path d="M61.544,138.804 C63.0733333,138.804 64.3683333,138.261333 65.429,137.176 C66.4896667,136.090667 67.02,134.808 67.02,133.328 L67.02,124.818 C70.4733333,126.840667 74.0993333,127.852 77.898,127.852 C81.2033333,127.852 84.3236667,127.136667 87.259,125.706 C90.1943333,124.275333 92.6486667,122.376 94.622,120.008 C96.5953333,117.64 98.0136667,114.840333 98.877,111.609 C99.7403333,108.377667 99.8266667,105.084667 99.136,101.73 C98.396,97.9313333 96.7063333,94.5766667 94.067,91.666 C91.4276667,88.7553333 88.258,86.708 84.558,85.524 C78.4406667,83.5506667 72.5946667,84.192 67.02,87.448 L67.02,84.414 L61.216,84.414 C58.4545763,84.414 56.216,86.6525763 56.216,89.414 L56.216,138.804 L56.216,138.804 L61.544,138.804 Z M77.898,117.048 C74.8886667,117.048 72.3233333,115.987333 70.202,113.866 C68.0806667,111.695333 67.02,109.117667 67.02,106.133 C67.02,103.148333 68.0806667,100.595333 70.202,98.474 C72.3233333,96.3526667 74.8886667,95.292 77.898,95.292 C80.9073333,95.292 83.4726667,96.3526667 85.594,98.474 C87.7153333,100.595333 88.776,103.148333 88.776,106.133 C88.776,109.117667 87.7153333,111.683 85.594,113.829 C83.4726667,115.975 80.9073333,117.048 77.898,117.048 Z M146.92,127.852 L146.92,84.414 L136.116,84.414 L136.116,87.448 C132.662667,85.4746667 129.036667,84.488 125.238,84.488 C119.268667,84.488 114.162667,86.597 109.92,90.815 C105.677333,95.033 103.556,100.139 103.556,106.133 C103.556,112.127 105.677333,117.245333 109.92,121.488 C114.162667,125.730667 119.268667,127.852 125.238,127.852 C129.234,127.852 133.008,126.766667 136.56,124.596 C137.004,125.533333 137.67,126.310333 138.558,126.927 C139.446,127.543667 140.432667,127.852 141.518,127.852 L146.92,127.852 Z M125.238,117.122 C122.228667,117.122 119.651,116.049 117.505,113.903 C115.359,111.757 114.286,109.167 114.286,106.133 C114.286,103.099 115.359,100.509 117.505,98.363 C119.651,96.217 122.228667,95.144 125.238,95.144 C128.05,95.144 130.492,96.0936667 132.564,97.993 C134.636,99.8923333 135.82,102.223333 136.116,104.986 L136.116,107.28 C135.82,110.042667 134.636,112.373667 132.564,114.273 C130.492,116.172333 128.05,117.122 125.238,117.122 Z M158.444,128.148 C159.924,128.148 161.194333,127.617667 162.255,126.557 C163.315667,125.496333 163.846,124.226 163.846,122.746 L163.846,106.392 L163.851091,106.033011 C163.93255,103.17815 164.99152,100.73248 167.028,98.696 C169.149333,96.5746667 171.714667,95.514 174.724,95.514 C177.733333,95.514 180.298667,96.5746667 182.42,98.696 L190.042,91 C185.799333,86.8066667 180.693333,84.71 174.724,84.71 C170.728,84.71 166.954,85.7953333 163.402,87.966 C163.155333,87.2753333 162.785333,86.6833333 162.292,86.19 C161.798667,85.6966667 161.219,85.3143333 160.553,85.043 C159.887,84.7716667 159.184,84.636 158.444,84.636 L153.042,84.636 L153.042,128.148 L158.444,128.148 Z M231.166,127.852 L231.166,84.414 L220.362,84.414 L220.362,87.448 C216.908667,85.4746667 213.282667,84.488 209.484,84.488 C203.514667,84.488 198.408667,86.597 194.166,90.815 C189.923333,95.033 187.802,100.139 187.802,106.133 C187.802,112.127 189.923333,117.245333 194.166,121.488 C198.408667,125.730667 203.514667,127.852 209.484,127.852 C213.48,127.852 217.254,126.766667 220.806,124.596 C221.25,125.533333 221.916,126.310333 222.804,126.927 C223.692,127.543667 224.678667,127.852 225.764,127.852 L231.166,127.852 Z M209.484,117.122 C206.474667,117.122 203.897,116.049 201.751,113.903 C199.605,111.757 198.532,109.167 198.532,106.133 C198.532,103.099 199.605,100.509 201.751,98.363 C203.897,96.217 206.474667,95.144 209.484,95.144 C212.296,95.144 214.738,96.0936667 216.81,97.993 C218.882,99.8923333 220.066,102.223333 220.362,104.986 L220.362,107.28 C220.066,110.042667 218.882,112.373667 216.81,114.273 C214.738,116.172333 212.296,117.122 209.484,117.122 Z M276.804,127.926 L254.974,106.096 L276.656,84.414 L261.338,84.414 L247.352,98.4 L247.352,73.536 L236.474,73.536 L236.474,127.778 L241.876,127.778 C243.356,127.778 244.638667,127.247667 245.724,126.187 C246.809333,125.126333 247.352,123.856 247.352,122.376 L247.352,113.718 L259.858,126.298 C260.943333,127.383333 262.226,127.926 263.706,127.926 L276.804,127.926 Z M295.802,128.148 C299.452667,128.148 302.844333,127.284667 305.977,125.558 C309.109667,123.831333 311.662667,121.512667 313.636,118.602 L303.424,114.236 C301.204,116.357333 298.663333,117.418 295.802,117.418 C293.532667,117.418 291.485333,116.789 289.66,115.531 C287.834667,114.273 286.502667,112.657333 285.664,110.684 L316.892,110.684 C317.089333,109.697333 317.188,109.204 317.188,109.204 C317.286667,108.809333 317.336,108.538 317.336,108.39 C317.434667,107.748667 317.484,107.107333 317.484,106.466 C317.484,104.196667 317.138667,102.050667 316.448,100.028 C315.116,95.5386667 312.538333,91.8756667 308.715,89.039 C304.891667,86.2023333 300.587333,84.784 295.802,84.784 C292.595333,84.784 289.573667,85.4376667 286.737,86.745 C283.900333,88.0523333 281.483,89.853 279.485,92.147 C277.487,94.441 276.019333,97.068 275.082,100.028 C274.440667,102.050667 274.12,104.196667 274.12,106.466 C274.12,107.798 274.268,109.204 274.564,110.684 C275.501333,115.666667 277.968,119.823 281.964,123.153 C285.96,126.483 290.572667,128.148 295.802,128.148 Z M286.922,99.954 C287.958,98.5726667 289.240667,97.475 290.77,96.661 C292.299333,95.847 293.964333,95.44 295.765,95.44 C297.565667,95.44 299.243,95.847 300.797,96.661 C302.351,97.475 303.646,98.5726667 304.682,99.954 L286.922,99.954 Z M342.994,128.148 C346.644667,128.148 350.036333,127.284667 353.169,125.558 C356.301667,123.831333 358.854667,121.512667 360.828,118.602 L350.616,114.236 C348.396,116.357333 345.855333,117.418 342.994,117.418 C340.724667,117.418 338.677333,116.789 336.852,115.531 C335.026667,114.273 333.694667,112.657333 332.856,110.684 L364.084,110.684 C364.281333,109.697333 364.38,109.204 364.38,109.204 C364.478667,108.809333 364.528,108.538 364.528,108.39 C364.626667,107.748667 364.676,107.107333 364.676,106.466 C364.676,104.196667 364.330667,102.050667 363.64,100.028 C362.308,95.5386667 359.730333,91.8756667 355.907,89.039 C352.083667,86.2023333 347.779333,84.784 342.994,84.784 C339.787333,84.784 336.765667,85.4376667 333.929,86.745 C331.092333,88.0523333 328.675,89.853 326.677,92.147 C324.679,94.441 323.211333,97.068 322.274,100.028 C321.632667,102.050667 321.312,104.196667 321.312,106.466 C321.312,107.798 321.46,109.204 321.756,110.684 C322.693333,115.666667 325.16,119.823 329.156,123.153 C333.152,126.483 337.764667,128.148 342.994,128.148 Z M334.114,99.954 C335.15,98.5726667 336.432667,97.475 337.962,96.661 C339.491333,95.847 341.156333,95.44 342.957,95.44 C344.757667,95.44 346.435,95.847 347.989,96.661 C349.543,97.475 350.838,98.5726667 351.874,99.954 L334.114,99.954 Z M385.302,128.074 C388.212667,128.074 390.926,127.358667 393.442,125.928 C395.958,124.497333 397.931333,122.536333 399.362,120.045 C400.792667,117.553667 401.508,114.828 401.508,111.868 L390.778,111.868 C390.778,113.397333 390.247667,114.692333 389.187,115.753 C388.126333,116.813667 386.831333,117.344 385.302,117.344 C383.97,117.344 382.798333,116.924667 381.787,116.086 C380.775667,115.247333 380.146667,114.211333 379.9,112.978 L379.9,95.514 L401.508,95.514 L401.508,84.784 L379.9,84.784 L379.9,79.234 C379.9,78.2473333 379.653333,77.3346667 379.16,76.496 C378.666667,75.6573333 378.000667,74.9913333 377.162,74.498 C376.323333,74.0046667 375.410667,73.758 374.424,73.758 L369.096,73.758 L369.096,111.868 C369.096,115.370667 370.095,118.515667 372.093,121.303 C374.091,124.090333 376.693333,126.051333 379.9,127.186 C381.626667,127.778 383.427333,128.074 385.302,128.074 Z" id="parakeet" fill="#000000" fill-rule="nonzero"></path>
        <g id="noun_chat_2781" transform="translate(17.656566, 18.000000)" fill="url(#radialGradient-1)" fill-rule="nonzero">
            <path d="M57.0010358,14.2 C62.2849237,14.2 71.1654362,16.043728 71.1654362,28.4 L71.1654362,42.6 C71.1654362,47.24624 68.9240614,51.371056 65.4940103,53.964544 C60.3211712,47.072432 52.0763571,42.6 42.8366354,42.6 L28.6858329,42.6 C14.5078347,42.6 14.5078347,31.91592 14.5078347,28.4 C14.5078347,24.15704 14.5078347,14.2 28.6858329,14.2 L57.0010358,14.2 M57.0010358,0 L28.6858329,0 C14.5078347,0 0.343434343,7.544176 0.343434343,28.4 C0.343434343,48.812784 14.5078347,56.8 28.6858329,56.8 L42.8366354,56.8 C50.6655828,56.8 57.0010358,63.166144 57.0010358,71 C72.6464659,71 85.3434343,58.284752 85.3434343,42.6 L85.3434343,28.4 C85.3434343,8.79832 71.1654362,0 57.0010358,0 L57.0010358,0 Z" id="Shape" transform="translate(42.843434, 35.500000) scale(-1, 1) translate(-42.843434, -35.500000) "></path>
        </g>
        <circle id="Oval" fill="#000000" cx="71.0858586" cy="46.3282828" r="3.94444444"></circle>
        <circle id="Oval-Copy" fill="#7ECC84" cx="60.3282828" cy="46.3282828" r="3.22727273"></circle>
        <circle id="Oval-Copy-2" fill="#D7F1D9" cx="51.0050505" cy="46.3282828" r="2.51010101"></circle>
    </g>
</svg>